<?xml version="1.0" encoding="UTF-8"?>
<svg width="121px" height="118px" viewBox="0 0 121 118" version="1.1" xmlns="http://www.w3.org/2000/svg" xmlns:xlink="http://www.w3.org/1999/xlink">
    <!-- Generator: Sketch 47.1 (45422) - http://www.bohemiancoding.com/sketch -->
    <title>Page 1</title>
    <desc>Created with Sketch.</desc>
    <defs>
        <polygon id="path-1" points="0 118 0 0.207 120.775 0.207 120.775 118"></polygon>
    </defs>
    <g id="Page-1" stroke="none" stroke-width="1" fill="none" fill-rule="evenodd">
        <g transform="translate(0.000000, -1.000000)">
            <g id="Group-3" transform="translate(0.000000, 0.793000)">
                <mask id="mask-2" fill="white">
                    <use xlink:href="#path-1"></use>
                </mask>
                <g id="Clip-2"></g>
                <path d="M60.3877,0.2066 C27.0407,0.2066 -0.0003,27.2416 -0.0003,60.5946 C-0.0003,87.2746 17.3027,109.9106 41.2967,117.8956 C44.3147,118.4546 45.4227,116.5856 45.4227,114.9906 C45.4227,113.5516 45.3677,108.7936 45.3407,103.7476 C28.5407,107.4006 24.9957,96.6226 24.9957,96.6226 C22.2487,89.6436 18.2907,87.7866 18.2907,87.7866 C12.8117,84.0386 18.7037,84.1156 18.7037,84.1156 C24.7677,84.5416 27.9607,90.3396 27.9607,90.3396 C33.3467,99.5706 42.0877,96.9016 45.5337,95.3586 C46.0767,91.4566 47.6407,88.7916 49.3677,87.2836 C35.9547,85.7576 21.8547,80.5786 21.8547,57.4396 C21.8547,50.8476 24.2137,45.4596 28.0767,41.2306 C27.4497,39.7096 25.3827,33.5676 28.6627,25.2496 C28.6627,25.2496 33.7337,23.6276 45.2727,31.4406 C50.0897,30.1026 55.2557,29.4316 60.3877,29.4076 C65.5197,29.4316 70.6897,30.1026 75.5157,31.4406 C87.0417,23.6276 92.1057,25.2496 92.1057,25.2496 C95.3927,33.5676 93.3257,39.7096 92.6987,41.2306 C96.5707,45.4596 98.9127,50.8476 98.9127,57.4396 C98.9127,80.6346 84.7867,85.7406 71.3387,87.2356 C73.5047,89.1096 75.4347,92.7846 75.4347,98.4186 C75.4347,106.4986 75.3657,113.0016 75.3657,114.9906 C75.3657,116.5986 76.4527,118.4816 79.5127,117.8886 C103.4947,109.8946 120.7757,87.2666 120.7757,60.5946 C120.7757,27.2416 93.7387,0.2066 60.3877,0.2066" id="Fill-1" fill="#FEFEFE" mask="url(#mask-2)"></path>
            </g>
            <path d="M22.8721,87.7028 C22.7391,88.0038 22.2671,88.0938 21.8371,87.8868 C21.3981,87.6898 21.1531,87.2808 21.2951,86.9798 C21.4251,86.6718 21.8971,86.5858 22.3351,86.7918 C22.7731,86.9888 23.0231,87.4018 22.8721,87.7028" id="Fill-4" fill="#FEFEFE"></path>
            <path d="M25.3184,90.4313 C25.0304,90.6983 24.4664,90.5743 24.0854,90.1523 C23.6894,89.7313 23.6164,89.1673 23.9084,88.8973 C24.2054,88.6303 24.7514,88.7553 25.1464,89.1763 C25.5424,89.6023 25.6194,90.1603 25.3184,90.4313" id="Fill-6" fill="#FEFEFE"></path>
            <path d="M27.6993,93.9088 C27.3293,94.1668 26.7233,93.9258 26.3493,93.3888 C25.9793,92.8508 25.9793,92.2068 26.3583,91.9488 C26.7323,91.6908 27.3293,91.9238 27.7083,92.4558 C28.0773,93.0018 28.0773,93.6458 27.6993,93.9088" id="Fill-8" fill="#FEFEFE"></path>
            <path d="M30.961,97.2692 C30.63,97.6342 29.925,97.5362 29.409,97.0372 C28.881,96.5512 28.734,95.8602 29.066,95.4952 C29.401,95.1292 30.11,95.2322 30.63,95.7262 C31.154,96.2122 31.314,96.9082 30.961,97.2692" id="Fill-10" fill="#FEFEFE"></path>
            <path d="M35.461,99.2203 C35.315,99.6933 34.636,99.9073 33.952,99.7063 C33.269,99.4993 32.822,98.9463 32.96,98.4683 C33.102,97.9913 33.784,97.7683 34.473,97.9833 C35.155,98.1893 35.603,98.7393 35.461,99.2203" id="Fill-12" fill="#FEFEFE"></path>
            <path d="M40.4034,99.5817 C40.4204,100.0797 39.8404,100.4927 39.1224,100.5017 C38.4004,100.5177 37.8154,100.1147 37.8074,99.6247 C37.8074,99.1217 38.3754,98.7137 39.0964,98.7007 C39.8144,98.6867 40.4034,99.0877 40.4034,99.5817" id="Fill-14" fill="#FEFEFE"></path>
            <path d="M45.002,98.7994 C45.088,99.2844 44.589,99.7834 43.876,99.9164 C43.175,100.0454 42.526,99.7444 42.437,99.2634 C42.35,98.7654 42.857,98.2664 43.558,98.1374 C44.272,98.0134 44.911,98.3054 45.002,98.7994" id="Fill-16" fill="#FEFEFE"></path>
        </g>
    </g>
</svg>