<?xml version="1.0" ?><svg id="Layer_1" style="enable-background:new 0 0 200 200;" version="1.1" viewBox="0 0 200 200" xml:space="preserve" xmlns="http://www.w3.org/2000/svg" xmlns:xlink="http://www.w3.org/1999/xlink"><style type="text/css">
	.st0{fill:#D6D6D6;}
	.st1{fill:#050505;}
	.st2{fill:#FFC610;}
	.st3{opacity:0.2;fill:#FFFFFF;}
	.st4{fill:#EFEFEF;}
	.st5{fill:#CC333F;}
</style><g><g><g><path class="st0" d="M177.1,146.4c0,4.2-3.4,7.6-7.6,7.6H30.5c-4.2,0-7.6-3.4-7.6-7.6V52.2c0-4.2,3.4-7.6,7.6-7.6h139.1     c4.2,0,7.6,3.4,7.6,7.6V146.4z"/><path class="st1" d="M169.5,155.9H30.5c-5.2,0-9.5-4.3-9.5-9.5V52.2c0-5.2,4.3-9.5,9.5-9.5h139.1c5.2,0,9.5,4.3,9.5,9.5v94.2     C179,151.7,174.8,155.9,169.5,155.9z M30.5,46.5c-3.1,0-5.7,2.6-5.7,5.7v94.2c0,3.1,2.6,5.7,5.7,5.7h139.1c3.1,0,5.7-2.6,5.7-5.7     V52.2c0-3.1-2.6-5.7-5.7-5.7H30.5z"/></g><rect class="st2" height="97.1" width="142.6" x="28.7" y="51"/><polygon class="st3" points="84.3,49.8 27.4,144.4 57.5,144.4 114.4,49.8   "/><polygon class="st3" points="126.9,49.8 69.9,144.4 76,144.4 133,49.8   "/><path class="st1" d="M173.2,150H26.8V49.1h146.4V150z M30.6,146.2h138.8V52.9H30.6V146.2z"/><path class="st0" d="M187.5,149.9c0,3-2.5,5.5-5.5,5.5H18c-3,0-5.5-2.5-5.5-5.5l0,0c0-3,2.5-5.5,5.5-5.5H182    C185.1,144.4,187.5,146.9,187.5,149.9L187.5,149.9z"/><path class="st4" d="M182,144.4h-16.5c3,0,5.5,2.5,5.5,5.5c0,3-2.5,5.5-5.5,5.5H182c3,0,5.5-2.5,5.5-5.5    C187.5,146.9,185.1,144.4,182,144.4z"/><path class="st1" d="M182,157.3H18c-4.1,0-7.4-3.3-7.4-7.4c0-4.1,3.3-7.4,7.4-7.4H182c4.1,0,7.4,3.3,7.4,7.4    C189.4,154,186.1,157.3,182,157.3z M18,146.3c-2,0-3.6,1.6-3.6,3.6c0,2,1.6,3.6,3.6,3.6H182c2,0,3.6-1.6,3.6-3.6    c0-2-1.6-3.6-3.6-3.6H18z"/><g><path class="st0" d="M114.9,147.5c0,1.7-1.4,3.1-3.1,3.1H88.1c-1.7,0-3.1-1.4-3.1-3.1l0,0c0-1.7,1.4-3.1,3.1-3.1h23.7     C113.6,144.4,114.9,145.7,114.9,147.5L114.9,147.5z"/><path class="st1" d="M111.9,152.4H88.1c-2.7,0-5-2.2-5-5s2.2-5,5-5h23.7c2.7,0,5,2.2,5,5S114.6,152.4,111.9,152.4z M88.1,146.3     c-0.7,0-1.2,0.5-1.2,1.2s0.5,1.2,1.2,1.2h23.7c0.7,0,1.2-0.5,1.2-1.2s-0.5-1.2-1.2-1.2H88.1z"/></g></g><g><g><path class="st1" d="M120.8,103L120.8,103c-0.6-2.4-3.1-4.3-6.1-4.3H85.4c-3,0-5.6,1.9-6.1,4.3l-0.1,0l0,0.8l0,0.1l0,0     c0.1,9.7,9.4,17.5,20.7,17.5c11.4,0,20.7-7.9,20.7-17.6L120.8,103z"/><path class="st5" d="M111.9,109.9C111.9,109.9,111.9,109.9,111.9,109.9L111.9,109.9c0-1.2-1.4-2.2-3.2-2.2H91.3     c-1.8,0-3.2,1-3.2,2.2l0,0c0,0,0,0,0,0c0,0,0,0,0,0l0,0c0,4.8,5.3,8.6,11.9,8.6C106.6,118.6,111.9,114.7,111.9,109.9L111.9,109.9     C111.9,109.9,111.9,109.9,111.9,109.9z"/><g><path class="st1" d="M71.8,85.1c0.3-1.3,1.1-3,2.6-3c1,0,2.2,0.8,2.4,1.9c0.3,2.8,4.8,2.9,4.5,0c-0.4-3.4-2.9-6.1-6.4-6.3      c-3.8-0.2-6.5,2.9-7.3,6.3C66.8,86.7,71.1,87.9,71.8,85.1L71.8,85.1z"/><path class="st1" d="M132.5,83.9c-0.9-3.4-3.6-6.5-7.3-6.3c-3.5,0.2-6,3-6.4,6.3c-0.3,2.9,4.1,2.8,4.5,0c0.1-1,1.4-1.9,2.4-1.9      c1.5,0.1,2.3,1.8,2.6,3C128.9,87.9,133.2,86.7,132.5,83.9L132.5,83.9z"/></g></g></g></g></svg>